<svg width="640" height="600" viewBox="0 0 640 600" xmlns="http://www.w3.org/2000/svg" xmlns:xlink="http://www.w3.org/1999/xlink">
    <defs>
        <path id="hmnompj36a" d="M0 0h640v600H0z"/>
    </defs>
    <g fill="none" fill-rule="evenodd">
        <mask id="644som6meb" fill="#fff">
            <use xlink:href="#hmnompj36a"/>
        </mask>
        <use fill="#2E2E85" xlink:href="#hmnompj36a"/>
        <path d="M752.853 249.89c48.804 35.97 79.96 94.3 78.819 159.645-.364 20.853-4 40.879-10.407 59.597-26.274 76.74-99.151 131.462-184.236 130.863-.68-.004-1.362-.01-2.045-.021-73.701-1.286-137.18-43.803-168.727-105.197 15.006 7.566 30.244 13.693 45.306 18.255l.555.172.714.213c67.885 20.561 134.976 10.184 188.91-34.769 54.482-48.107 74.27-115.819 61.189-188.643a281.18 281.18 0 0 0-10.078-40.115zM608.626 77.41c-.637 16.794-1.122 112.017 65.143 172.848 11.19 10.276 46.661 42.43 68.776 62.143-16.068-4.617-32.978-7.288-50.504-7.594-107.527-1.876-196.205 83.176-198.07 189.972l-.17 10.286a294.725 294.725 0 0 1-28.31-12.422c-25.012-47.62-41.86-110.512 20.823-224.883 38.628-70.488 79.173-128.556 102.873-159.317 6.891-8.937 13.525-19.873 19.439-31.032zM648.629 1l.32.003c3.27.057 6.55.922 9.48 2.338 10.166 4.935 18.192 16.048 19.158 17.429.009.02.017.03.028.03.028.064.077.113.077.113 24.857 35.224 54.474 97.232 72.992 226.77l-1.191-1.064c-19.5-17.357-41.675-33.989-57.736-52.585-61.9-71.65-64.518-132.956-62.367-169.033.22-3.678.948-7.316 2.296-10.744 3.702-9.418 9.907-13.145 16.623-13.254l.32-.003z" fill-opacity=".097" fill="#DBDDDC" opacity=".5" mask="url(#644som6meb)"/>
    </g>
</svg>
