<svg width="82" height="35" viewBox="0 0 82 35" xmlns="http://www.w3.org/2000/svg">
    <g fill-rule="nonzero" fill="none">
        <path d="M76.843 14.28c-1.251-7.56-2.99-11.13-4.478-13.153-.3-.414-.69-.756-1.138-1.002A1.393 1.393 0 0 0 70.67 0c-.494 0-.938.326-1.107 1.209-.106 2.08 0 5.768 3.809 10.021a37.205 37.205 0 0 0 3.427 3.063l.087.163v-.12c1.795 5.08.951 10.022-2.751 13.38-3.384 2.918-7.724 3.457-12.083 1.879v-.627c.017-6.262 5.098-11.325 11.35-11.311.998-.002 1.99.131 2.953.394a674.927 674.927 0 0 1-4.072-3.564c-3.92-3.488-3.99-9.057-3.97-10.021A12.944 12.944 0 0 1 67.21 6.3a75.004 75.004 0 0 0-5.834 9.395c-3.54 6.752-2.327 10.723-.826 13.485a10.79 10.79 0 0 0 2.727 3.495c5.878 4.572 15.01 1.579 17.661-5.211 2.039-4.61.575-10.91-4.071-13.216" fill="#2C2A75"/>
        <path d="M76.824 14.2c4.665 2.304 6.129 8.636 4.09 13.259-2.696 6.814-11.833 9.82-17.736 5.236a8.46 8.46 0 0 1-2.852-3.82c4.903 2.386 9.937 2.104 13.759-1.19 3.72-3.408 4.571-8.369 2.739-13.486" fill="#CD8C66"/>
        <path d="M12.833 12.852c-5.916 0-9.706 4.04-9.706 9.652 0 5.719 3.659 9.652 10.113 9.652a12.31 12.31 0 0 0 4.002-.626v-7.554h-4.578a2.012 2.012 0 0 1-2.02-2.017c0-.345.28-.626.626-.626h8.305c.345 0 .625.28.625.626v11.037a.739.739 0 0 1-.55.77 17.943 17.943 0 0 1-6.66 1.127C5.09 34.893 0 29.726 0 22.504c0-7.015 4.922-12.389 12.614-12.389 2.238-.053 4.467.3 6.58 1.04a.625.625 0 0 1 .494.74 2.8 2.8 0 0 1-3.127 1.358c-1.23-.289-2.49-.43-3.753-.42M25.372 10.523a2.366 2.366 0 0 1 2.358 2.36v20.952c0 .346-.28.626-.625.626H25.39a.626.626 0 0 1-.625-.626V11.174c0-.346.28-.626.625-.626M44.028 12.852c-5.916 0-9.706 4.04-9.706 9.652 0 5.719 3.658 9.652 10.119 9.652a12.297 12.297 0 0 0 3.996-.626v-7.554H43.86a2.022 2.022 0 0 1-2.02-2.017c0-.345.28-.626.626-.626h8.305c.345 0 .625.28.625.626v11.037a.745.745 0 0 1-.544.77 17.975 17.975 0 0 1-6.667 1.127c-7.898 0-12.99-5.167-12.99-12.389 0-7.015 4.923-12.389 12.615-12.389 2.238-.053 4.467.3 6.58 1.04a.625.625 0 0 1 .493.74 2.838 2.838 0 0 1-3.17 1.37 15.893 15.893 0 0 0-3.753-.413" fill="#2C2A75"/>
    </g>
</svg>
