<svg width="78" height="148" viewBox="0 0 78 148" xmlns="http://www.w3.org/2000/svg">
    <path d="M1288.36 48.343c-6.027-36.427-14.404-53.63-21.576-63.377a16.612 16.612 0 0 0-5.484-4.829 6.712 6.712 0 0 0-2.682-.604c-2.38 0-4.52 1.57-5.334 5.825-.512 10.02 0 27.795 18.352 48.287a179.268 179.268 0 0 0 16.513 14.758l.422.785v-.574c8.649 24.476 4.58 48.288-13.259 64.464-16.302 14.064-37.216 16.659-58.219 9.054v-3.018c.083-30.174 24.565-54.571 54.693-54.504a53.744 53.744 0 0 1 14.224 1.9c-6.298-5.462-16.423-14.334-19.618-17.171-18.894-16.81-19.225-43.64-19.135-48.288a62.37 62.37 0 0 1-5.303 8.843 361.397 361.397 0 0 0-28.116 45.27c-17.055 32.533-11.21 51.667-3.977 64.976a51.988 51.988 0 0 0 13.138 16.84c28.326 22.031 72.322 7.605 85.1-25.11 9.823-22.211 2.771-52.572-19.618-63.678" style="mix-blend-mode:screen" transform="translate(-1202)" fill="#2C2A75" fill-rule="nonzero" opacity=".685"/>
</svg>
