<svg width="170" height="279" viewBox="0 0 170 279" xmlns="http://www.w3.org/2000/svg">
    <path d="M135.514 115.926c21.344 16.754 34.97 43.923 34.471 74.36-.159 9.712-1.749 19.04-4.551 27.758-11.49 35.745-43.364 61.233-80.576 60.954a88.106 88.106 0 0 1-.894-.01c-32.233-.599-59.995-20.403-73.792-48.999 6.563 3.524 13.227 6.378 19.814 8.503l.243.08.312.1c29.69 9.576 59.032 4.743 82.62-16.195 23.827-22.408 32.482-53.946 26.76-87.866a137.998 137.998 0 0 0-4.407-18.685zm-63.077-80.34c-.279 7.823-.49 52.176 28.49 80.51 3.036 2.97 10.157 9.858 17.436 16.853l.891.857.892.856.89.855c3.555 3.41 7.033 6.735 9.97 9.524a80.422 80.422 0 0 0-22.087-3.537c-47.027-.873-85.811 38.742-86.627 88.486l-.074 4.791a124.992 124.992 0 0 1-12.381-5.786c-10.94-22.18-18.308-51.474 9.107-104.747 16.893-32.832 34.626-59.88 44.991-74.207 3.014-4.162 5.915-9.256 8.502-14.454zM89.856.002h.217c1.43.027 2.864.43 4.145 1.09 4.447 2.298 7.957 7.475 8.38 8.118.003.009.007.014.012.014.012.03.033.052.033.052 10.872 16.407 23.825 45.289 31.924 105.625l-.9-.854c-8.435-7.955-17.951-15.6-24.872-24.134-27.073-33.374-28.217-61.929-27.277-78.733.097-1.713.415-3.407 1.004-5.004 1.591-4.31 4.24-6.061 7.118-6.17l.216-.004z" fill="#A6A6A6" fill-rule="evenodd" fill-opacity=".147" opacity=".5"/>
</svg>
