<svg width="87" height="50" viewBox="0 0 87 50" xmlns="http://www.w3.org/2000/svg">
    <g fill="none" fill-rule="evenodd">
        <path d="M38.928 34.457c-1.79-4.296-1.693-15.533-3.149-19.617v-.009c-.344-.935-.767-1.49-1.314-1.49-2.928 0-2.814 3.475-6.121 3.475-3.308 0-6.722-2.752-9.809-2.752-2.972 0-4.287 3.052-5.116 7.189v.009c-1.12 5.6-1.35 13.169-3.546 17.843M38.567 9.68c2.108 3.034 3.598 7.198 3.598 12.87 0 8.079 0 12.348 2.497 16.688M6.125 39.494c.009-4.358 1.931-10.4 1.931-16.945 0-5.671.9-9.835 3.008-12.869" stroke="#2E2E85" stroke-linecap="round" stroke-linejoin="round"/>
        <path d="M35.78 14.831h0a21.41 21.41 0 0 1 .502 4.631c0 .935-.062 1.861-.176 2.752-.935 7.453-5.637 13.125-11.29 13.125-3.546 0-6.713-2.232-8.821-5.733-1.244-2.082-2.117-4.613-2.47-7.392-.044-.317-.07-.635-.106-.961" stroke="#2E2E85" stroke-linecap="round" stroke-linejoin="round"/>
        <path d="M13.525 22.214c3.431 0 4.896 6.95 6.88 6.95 1.985 0 1.914-.881 4.41-.881 2.497 0 2.426.882 4.41.882 1.985 0 3.458-6.95 6.88-6.95M1 49.452l1.04-5.742a5.292 5.292 0 0 1 4.729-4.322l3.916-.353a5.295 5.295 0 0 0 4.04-2.514l1.27-2.064c0 1.914 3.237 6.174 8.82 6.174 5.584 0 8.82-4.26 8.82-6.174l1.262 2.064a5.295 5.295 0 0 0 4.04 2.514l3.916.353a5.283 5.283 0 0 1 4.728 4.322l1.05 5.742M33.636 34.457v-4.851M15.995 34.457v-4.851" stroke="#2E2E85" stroke-linecap="round" stroke-linejoin="round"/>
        <path d="M56.68 14.5c.735-7.35 3.675-10.841 8.82-10.474 5.145.368 7.902 4.043 8.27 11.026-3.308-3.308-6.065-4.778-8.27-4.41-2.205.367-4.594 1.47-7.167 3.307l-1.654 1.654v-1.102z" stroke="#2E2E85" stroke-width="1.1" fill="#8FD8F2"/>
        <path d="M73.714 16.829c0-2.31-4.245-6.053-8.49-6.011-4.245-.034-8.49 3.71-8.49 6.01" stroke="#2E2E85" stroke-width="1.1" stroke-linecap="round" stroke-linejoin="round"/>
        <path d="M51.25 28.095c-4.61 4.61-.518 20.078 12.276 20.078 8.855 0 15.282-3.396 15.282-22.922 0-12.59-4.067-21.225-13.584-21.225" stroke="#2E2E85" stroke-width="1.1" stroke-linecap="round" stroke-linejoin="round"/>
        <path d="M77.61 37.28c7.99 3.464 7.285 5.451 8.839 10.893M46.756 41.513c.783-1.05 1.52-1.964 3.543-3.027M74.563 30.344c0 6.648-6.512 11.886-11.886 11.886-2.334 0-11.885-.39-11.885-22.073 0-5.417 3.04-16.13 14.432-16.13" stroke="#2E2E85" stroke-width="1.1" stroke-linecap="round" stroke-linejoin="round"/>
        <path d="M56.735 16.829s0 10.187 5.518 18.677" stroke="#2E2E85" stroke-width="1.1" stroke-linecap="round" stroke-linejoin="round"/>
        <path d="M56.735 16.829c0 8.456 5.119 12.666 8.49 12.666 3.37 0 8.49-4.21 8.49-12.666 0-3.574.492-12.803-8.49-12.803-5.383 0-8.49 3.889-8.49 12.803" stroke="#2E2E85" stroke-width="1.1" stroke-linecap="round" stroke-linejoin="round"/>
        <path d="M38.928 34.457c-1.79-4.296-1.693-15.533-3.149-19.617v-.009c-.344-.935-.767-1.49-1.314-1.49-2.928 0-2.814 3.475-6.121 3.475-3.308 0-6.722-2.752-9.809-2.752-2.972 0-4.287 3.052-5.116 7.189v.009c-1.12 5.6-1.35 13.169-3.546 17.843M38.567 9.68c2.108 3.034 3.598 7.198 3.598 12.87 0 8.079 0 12.348 2.497 16.688M6.125 39.494c.009-4.358 1.931-10.4 1.931-16.945 0-5.671.9-9.835 3.008-12.869" stroke="#2E2E85" stroke-linecap="round" stroke-linejoin="round"/>
        <path d="M35.78 14.831h0a21.41 21.41 0 0 1 .502 4.631c0 .935-.062 1.861-.176 2.752-.935 7.453-5.637 13.125-11.29 13.125-3.546 0-6.713-2.232-8.821-5.733-1.244-2.082-2.117-4.613-2.47-7.392-.044-.317-.07-.635-.106-.961" stroke="#2E2E85" stroke-linecap="round" stroke-linejoin="round"/>
        <path d="M13.525 22.214c3.431 0 4.896 6.95 6.88 6.95 1.985 0 1.914-.881 4.41-.881 2.497 0 2.426.882 4.41.882 1.985 0 3.458-6.95 6.88-6.95M1 49.452l1.04-5.742a5.292 5.292 0 0 1 4.729-4.322l3.916-.353a5.295 5.295 0 0 0 4.04-2.514l1.27-2.064c0 1.914 3.237 6.174 8.82 6.174 5.584 0 8.82-4.26 8.82-6.174l1.262 2.064a5.295 5.295 0 0 0 4.04 2.514l3.916.353a5.283 5.283 0 0 1 4.728 4.322l1.05 5.742M33.636 34.457v-4.851M15.995 34.457v-4.851" stroke="#2E2E85" stroke-linecap="round" stroke-linejoin="round"/>
        <path d="M56.68 14.5c.735-7.35 3.675-10.841 8.82-10.474 5.145.368 7.902 4.043 8.27 11.026-3.308-3.308-6.065-4.778-8.27-4.41-2.205.367-4.594 1.47-7.167 3.307l-1.654 1.654v-1.102z" fill="#EBD1C2"/>
        <path d="M73.714 16.829c0-2.31-4.245-6.053-8.49-6.011-4.245-.034-8.49 3.71-8.49 6.01" stroke="#2E2E85" stroke-width="1.1" stroke-linecap="round" stroke-linejoin="round"/>
        <path d="M51.25 28.095c-4.61 4.61-.518 20.078 12.276 20.078 8.855 0 15.282-3.396 15.282-22.922 0-12.59-4.067-21.225-13.584-21.225" stroke="#2E2E85" stroke-width="1.1" stroke-linecap="round" stroke-linejoin="round"/>
        <path d="M77.61 37.28c7.99 3.464 7.285 5.451 8.839 10.893M46.756 41.513c.783-1.05 1.52-1.964 3.543-3.027M74.563 30.344c0 6.648-6.512 11.886-11.886 11.886-2.334 0-11.885-.39-11.885-22.073 0-5.417 3.04-16.13 14.432-16.13" stroke="#2E2E85" stroke-width="1.1" stroke-linecap="round" stroke-linejoin="round"/>
        <path d="M56.735 16.829s0 10.187 5.518 18.677" stroke="#2E2E85" stroke-width="1.1" stroke-linecap="round" stroke-linejoin="round"/>
        <path d="M56.735 16.829c0 8.456 5.119 12.666 8.49 12.666 3.37 0 8.49-4.21 8.49-12.666 0-3.574.492-12.803-8.49-12.803-5.383 0-8.49 3.889-8.49 12.803" stroke="#2E2E85" stroke-width="1.1" stroke-linecap="round" stroke-linejoin="round"/>
        <path d="M39.99 6.764a1.77 1.77 0 0 1-1.764 1.764H11.764A1.77 1.77 0 0 1 10 6.764C10 5.794 10.794 5 11.764 5h26.462c.97 0 1.764.794 1.764 1.764z" stroke="#2E2E85" stroke-linecap="round" stroke-linejoin="round"/>
        <path d="M14 5.41C18.225 1.847 23.13 1 24.593 1c1.465 0 6.369.847 10.594 4.41" stroke="#2E2E85" stroke-linecap="round" stroke-linejoin="round"/>
    </g>
</svg>
