<svg width="17" height="22" viewBox="0 0 17 22" xmlns="http://www.w3.org/2000/svg">
    <path d="M8.756 2.677a.406.406 0 0 0 .034.194l.1.226c.062.14.196.234.35.25l.253.026.045.002a.438.438 0 0 0 .287-.107.415.415 0 0 0 .143-.312v-.189l.115-.158a.41.41 0 0 0 .076-.192l.037-.297a.41.41 0 0 0-.029-.21.406.406 0 0 0 .021-.252l-.079-.333a.421.421 0 0 0-.235-.285.446.446 0 0 0-.376.004l-.147.072a.423.423 0 0 0-.201.207l-.124.274-.186.152a.416.416 0 0 0-.06.582l-.024.346zm.623-.822.163-.365.148-.071.079.333-.08.082-.078.123.158.113-.037.298-.195.266v.323l-.253-.026-.1-.225.037-.534-.105-.102.263-.215zm7.108 7.098a.421.421 0 0 0-.314-.403l-.499-.136-.35-.455a.478.478 0 0 0-.059-.062L14.92 7.6l-.28-.449c-.009-.013-.018-.027-.028-.039l-.236-.296a.434.434 0 0 0-.092-.085l-.4-.273a.435.435 0 0 0-.434-.033l-.087.04-.192-.138a.44.44 0 0 0-.255-.081h-.028l-.333.022-.084-.054a.437.437 0 0 0-.121-.053L11.746 6l-.557-.205-.342-.437-.481-.623-.24-.555a.423.423 0 0 0-.24-.227l-.108-.041a.436.436 0 0 0-.45.084l-.044.04a.44.44 0 0 0-.19-.08l-.406-.067a.436.436 0 0 0-.324.074.414.414 0 0 0-.173.276l-.052.339a.41.41 0 0 0 .013.182l.055.179-.05.139a.412.412 0 0 0-.02.194l.07.477.005.028-.21.035a.432.432 0 0 0-.285.178.409.409 0 0 0-.063.323l.077.351.018.224-.392.526a.415.415 0 0 0-.069.145l-.19.738a.383.383 0 0 0-.01.15l.048.39c.008.061.028.119.061.17l.677 1.07-1.11 3.494-5.473 1.827a.429.429 0 0 0-.251.22.406.406 0 0 0-.01.33l1.947 4.788a.43.43 0 0 0 .544.24l.708-.246c.201.023.332.027.393.012a.637.637 0 0 0 .28-.187c.529-.261.894-.392 1.093-.392.3 0 .335.148.566.23.23.08.65-.057.732-.144.362-.266.582-.464.661-.596.12-.196.12-.372.101-.823-.011-.3.196-.425.623-.374l.562-.002c.035.015.178.023.428.023.376 0 .658-.454.747-.726.06-.18.156-.52.286-1.015l.397-.182 1.157-.08a.49.49 0 0 0 .07-.01l.32-.076a.43.43 0 0 0 .282-.217.41.41 0 0 0 .014-.35l-.174-.408c-.04-.096-.156-.642-.113-.881.043-.24-.047-.449.128-.68.175-.234.204-.19.222-.21.016-.023-.013-.009.06.038a.435.435 0 0 0 .242.074c.086 0 .063-.003.094-.01l.392-.085a.425.425 0 0 0 .314-.277l.145-.425.506-.97.71-.496a.415.415 0 0 0 .165-.238l.075-.291.264-.437.2-.078a.417.417 0 0 0 .262-.473l-.038-.182a.41.41 0 0 0 .091-.258l.001-.58zm-.43.58-.123.152.078.372-.336.131-.37.612-.09.35c-.39.233-.64.43-.75.592-.168.241-.293.506-.47.796a2.92 2.92 0 0 0-.298.712l-.392.085-.188-.125c.125-.206.179-.337.163-.395-.024-.085-.163-.172-.277-.018-.077.102-.19.298-.339.586-.176.17-.281.31-.315.417a2.28 2.28 0 0 0-.095.688c0 .3.095.971.095.979 0 .007.195.513.195.513l-.32.076-1.236.085-.658.3-.154.64-.172.547c-.11.257-.222.4-.336.43-.114.028-.464.021-1.051-.021-.569.048-.89.228-.964.543-.111.471.052.685-.111.956-.109.18-.297.324-.566.429-.188.041-.398-.02-.632-.184-.233-.163-.757-.078-1.57.257a.363.363 0 0 1-.21.257.514.514 0 0 1-.375.004l-.813.283-1.946-4.789 5.68-1.895 1.232-3.88-.78-1.23-.047-.39.19-.739.484-.651-.032-.405-.084-.38.464-.077.5-.133-.011-.22-.395-.103-.068-.477.095-.266-.095-.308.053-.339.405.067.19.307.41-.374.108.041.261.603.515.666.416.533.69.254.624.167.204.13.476-.03.28.201.206.047.236-.111.4.272.235.295.314.503.392.339.438.569.64.174v.58z" fill="#2E2E85" fill-rule="nonzero" stroke="#2E2E85" stroke-width=".1"/>
</svg>
