<svg width="21" height="22" viewBox="0 0 21 22" xmlns="http://www.w3.org/2000/svg">
    <g stroke="#FFF" fill="none" fill-rule="evenodd" stroke-dasharray="0,0" stroke-linecap="round" stroke-linejoin="round">
        <path d="M15.25 14.132c.089 1.063 1.057 1.841 2.113 1.841h1.859v1.172c0 2.04-1.653 3.703-3.678 3.703H4.317c-2.025 0-3.678-1.664-3.678-3.703v-6.628c0-2.038 1.653-3.703 3.678-3.703h11.227c2.025 0 3.678 1.665 3.678 3.703v1.419h-1.976c-.548 0-1.046.216-1.408.59-.411.404-.646.985-.587 1.606z"/>
        <path d="M.64 11.404V6.903c0-1.172.713-2.216 1.799-2.63l7.765-2.954c1.213-.463 2.514.443 2.514 1.753v3.742M20.26 14.97c0 .54-.431.984-.979 1.004h-1.917c-1.056 0-2.024-.778-2.112-1.842a1.986 1.986 0 0 1 .586-1.605c.362-.375.861-.591 1.409-.591h2.034c.548.02.978.463.978 1.004v2.03zM5.04 11h6.846"/>
    </g>
</svg>
