<svg width="41" height="52" viewBox="0 0 41 52" xmlns="http://www.w3.org/2000/svg">
    <g fill-rule="nonzero" fill="none">
        <path d="m34.935 37.731-1.122-.397v-13.84a9.625 9.625 0 0 0 .373-2.165h.012c.024-.436.536-10.75-4.863-16.551C27 2.27 23.915 1 20.155 1c-4.063 0-7.28 1.295-9.567 3.845-4.28 4.779-3.99 12.49-3.777 14.918-.178.326-.265.745-.256 1.255.015.754.135 1.64.382 2.473v13.932l-.872.308C3.036 38.806 1 41.717 1 44.975v5.839h39v-5.839c0-3.258-2.033-6.169-5.065-7.244zm-8.298-2.944v-2.299a13.435 13.435 0 0 0 1.693-1.979c.858-1.218 1.555-2.605 2.082-4.098.15.027.3.04.445.04.505 0 .983-.156 1.41-.468.148-.107.283-.232.41-.366v11.311l-6.04-2.14zM7.692 20.993c-.006-.244.018-.671.232-.806.234-.146.721-.046 1.11.104.069 1.759.345 3.442.796 5.002a1.261 1.261 0 0 1-.682-.247c-.818-.596-1.417-2.263-1.456-4.053zm2.46-1.585c0-.348-.069-.748-.144-1.172-.057-.336-.15-.861-.132-1.127 8.322.412 15.182-2.913 17.281-4.062.656 1.83 2.464 3.659 3.182 4.334.07.656.1 1.282.1 2.024 0 2.55-.451 4.996-1.297 7.162-.508.424-2.977 2.351-5.967 2.559a1.786 1.786 0 0 0-1.73-1.384h-1.551c-.98 0-1.78.81-1.78 1.833 0 .995.796 1.807 1.78 1.807h1.552c.728 0 1.353-.445 1.63-1.093 2.03-.098 3.826-.895 5.077-1.637-.232.41-.481.807-.746 1.185-1.913 2.721-4.44 4.218-7.113 4.218-5.594.003-10.142-6.57-10.142-14.647zm21.4.956c.403-.186 1.01-.348 1.28-.177.214.135.235.562.232.806-.039 1.79-.637 3.457-1.455 4.053a1.25 1.25 0 0 1-.84.247c.446-1.557.71-3.219.783-4.929zm-9.462 9.214a.65.65 0 0 1-.644.653h-1.552c-.355 0-.644-.293-.644-.678a.65.65 0 0 1 .644-.653h1.552c.355 0 .644.293.644.678zm-6.729 4.037c1.492 1.02 3.164 1.594 4.933 1.594 1.847 0 3.621-.617 5.21-1.771v2.055c-.849 1.176-2.744 1.924-4.951 1.948-2.256.022-4.238-.7-5.146-1.9l-.046-.057v-1.87zM11.431 5.62c2.06-2.3 4.998-3.469 8.725-3.469 3.431 0 6.243 1.149 8.352 3.414 3.609 3.876 4.391 10.148 4.541 13.47-.502-.146-1.055-.045-1.476.09a19.336 19.336 0 0 0-.157-2.318l-.069.009.03-.034c-.827-.724-3.032-2.98-3.3-4.69l-.132-.846-.721.442c-.079.05-7.892 4.78-17.415 4.264a.955.955 0 0 0-.785.314c-.424.486-.282 1.304-.132 2.171.04.217.075.437.1.632-.335-.085-.72-.14-1.095-.073-.175-2.822-.112-9.308 3.533-13.376zM8.076 25.617c.13.134.265.26.409.366a2.358 2.358 0 0 0 1.708.446c.915 2.571 2.313 4.743 4.03 6.285v2.12l-6.147 2.18V25.617zm30.79 25.316H2.14v-5.958c0-2.77 1.73-5.243 4.304-6.156l7.892-2.8.171.225c1.101 1.457 3.366 2.349 5.925 2.349h.133c2.595-.031 4.785-.938 5.853-2.422l.138-.193 8.003 2.84c2.575.914 4.304 3.387 4.304 6.157v4.688l.003 1.27z" stroke="#2E2E85" stroke-width=".1" fill="#2E2E85"/>
        <path d="M38.908 51.535H2.182v-5.957c0-2.77 1.73-5.243 4.304-6.157l7.892-2.8.171.226c1.101 1.457 3.366 2.348 5.925 2.348h.133c2.595-.03 4.785-.937 5.852-2.421l.139-.193 8.003 2.84c2.575.914 4.304 3.387 4.304 6.157v4.688l.003 1.27z" fill="#8FD8F2"/>
        <path d="m34.935 37.731-1.122-.397v-13.84a9.625 9.625 0 0 0 .373-2.165h.012c.024-.436.536-10.75-4.863-16.551C27 2.27 23.915 1 20.155 1c-4.063 0-7.28 1.295-9.567 3.845-4.28 4.779-3.99 12.49-3.777 14.918-.178.326-.265.745-.256 1.255.015.754.135 1.64.382 2.473v13.932l-.872.308C3.036 38.806 1 41.717 1 44.975v5.839h39v-5.839c0-3.258-2.033-6.169-5.065-7.244zm-8.298-2.944v-2.299a13.435 13.435 0 0 0 1.693-1.979c.858-1.218 1.555-2.605 2.082-4.098.15.027.3.04.445.04.505 0 .983-.156 1.41-.468.148-.107.283-.232.41-.366v11.311l-6.04-2.14zM7.692 20.993c-.006-.244.018-.671.232-.806.234-.146.721-.046 1.11.104.069 1.759.345 3.442.796 5.002a1.261 1.261 0 0 1-.682-.247c-.818-.596-1.417-2.263-1.456-4.053zm2.46-1.585c0-.348-.069-.748-.144-1.172-.057-.336-.15-.861-.132-1.127 8.322.412 15.182-2.913 17.281-4.062.656 1.83 2.464 3.659 3.182 4.334.07.656.1 1.282.1 2.024 0 2.55-.451 4.996-1.297 7.162-.508.424-2.977 2.351-5.967 2.559a1.786 1.786 0 0 0-1.73-1.384h-1.551c-.98 0-1.78.81-1.78 1.833 0 .995.796 1.807 1.78 1.807h1.552c.728 0 1.353-.445 1.63-1.093 2.03-.098 3.826-.895 5.077-1.637-.232.41-.481.807-.746 1.185-1.913 2.721-4.44 4.218-7.113 4.218-5.594.003-10.142-6.57-10.142-14.647zm21.4.956c.403-.186 1.01-.348 1.28-.177.214.135.235.562.232.806-.039 1.79-.637 3.457-1.455 4.053a1.25 1.25 0 0 1-.84.247c.446-1.557.71-3.219.783-4.929zm-9.462 9.214a.65.65 0 0 1-.644.653h-1.552c-.355 0-.644-.293-.644-.678a.65.65 0 0 1 .644-.653h1.552c.355 0 .644.293.644.678zm-6.729 4.037c1.492 1.02 3.164 1.594 4.933 1.594 1.847 0 3.621-.617 5.21-1.771v2.055c-.849 1.176-2.744 1.924-4.951 1.948-2.256.022-4.238-.7-5.146-1.9l-.046-.057v-1.87zM11.431 5.62c2.06-2.3 4.998-3.469 8.725-3.469 3.431 0 6.243 1.149 8.352 3.414 3.609 3.876 4.391 10.148 4.541 13.47-.502-.146-1.055-.045-1.476.09a19.336 19.336 0 0 0-.157-2.318l-.069.009.03-.034c-.827-.724-3.032-2.98-3.3-4.69l-.132-.846-.721.442c-.079.05-7.892 4.78-17.415 4.264a.955.955 0 0 0-.785.314c-.424.486-.282 1.304-.132 2.171.04.217.075.437.1.632-.335-.085-.72-.14-1.095-.073-.175-2.822-.112-9.308 3.533-13.376zM8.076 25.617c.13.134.265.26.409.366a2.358 2.358 0 0 0 1.708.446c.915 2.571 2.313 4.743 4.03 6.285v2.12l-6.147 2.18V25.617zm30.79 25.316H2.14v-5.958c0-2.77 1.73-5.243 4.304-6.156l7.892-2.8.171.225c1.101 1.457 3.366 2.349 5.925 2.349h.133c2.595-.031 4.785-.938 5.853-2.422l.138-.193 8.003 2.84c2.575.914 4.304 3.387 4.304 6.157v4.688l.003 1.27z" stroke="#2E2E85" stroke-width=".1" fill="#2E2E85"/>
        <path d="M38.908 51.535H2.182v-5.957c0-2.77 1.73-5.243 4.304-6.157l7.892-2.8.171.226c1.101 1.457 3.366 2.348 5.925 2.348h.133c2.595-.03 4.785-.937 5.852-2.421l.139-.193 8.003 2.84c2.575.914 4.304 3.387 4.304 6.157v4.688l.003 1.27z" fill="#EBD1C2"/>
    </g>
</svg>
