<svg width="24" height="24" viewBox="0 0 24 24" xmlns="http://www.w3.org/2000/svg">
    <path d="M2.878 11.083h4.553c.08-2.505.482-4.787 1.115-6.526.162-.446.343-.867.544-1.252a9.175 9.175 0 0 0-6.212 7.778zM12 1C5.925 1 1 5.925 1 12s4.925 11 11 11 11-4.925 11-11S18.075 1 12 1zm0 1.833c-.138 0-.389.075-.732.473-.34.396-.689 1.023-1 1.877-.547 1.507-.924 3.568-1.002 5.9h5.468c-.078-2.332-.455-4.393-1.002-5.9-.311-.854-.66-1.48-1-1.877-.343-.398-.594-.473-.732-.473zm4.569 8.25c-.08-2.505-.482-4.787-1.115-6.526a10.447 10.447 0 0 0-.544-1.252 9.175 9.175 0 0 1 6.212 7.778h-4.553zm-1.835 1.834H9.266c.078 2.332.455 4.393 1.002 5.9.311.854.66 1.48 1 1.877.343.398.594.473.732.473s.389-.075.732-.473c.34-.396.689-1.023 1-1.877.547-1.507.924-3.568 1.002-5.9zm.176 7.778c.201-.385.382-.806.544-1.252.633-1.739 1.035-4.021 1.115-6.526h4.553a9.175 9.175 0 0 1-6.212 7.778zm-5.82 0c-.201-.385-.382-.806-.544-1.252-.632-1.739-1.036-4.021-1.115-6.526H2.878a9.175 9.175 0 0 0 6.212 7.778z" fill="#FFF" stroke="#2E2E85" stroke-width=".6" fill-rule="evenodd"/>
</svg>
