<svg width="15" height="12" viewBox="0 0 15 12" xmlns="http://www.w3.org/2000/svg">
    <path d="M7.151 7.919 4.242 4.947a.566.566 0 0 1 0-.788.537.537 0 0 1 .772 0l1.979 2.02L6.992.616c0-.164.193-.3.447-.329l.098-.005c.301 0 .546.15.546.334V6.18l1.978-2.02a.537.537 0 0 1 .695-.064l.076.064a.566.566 0 0 1 0 .788L7.922 7.92a.537.537 0 0 1-.77 0zm-4.108 3.808C1.903 11.727 1 10.864 1 9.82V3.485C1 3.217 1.25 3 1.557 3c.308 0 .557.217.557.485V9.82c0 .528.428.938.929.938h8.914c.5 0 .929-.41.929-.938V3.485c0-.268.25-.485.557-.485.308 0 .557.217.557.485V9.82c0 1.044-.902 1.907-2.043 1.907H3.043z" fill="#2E2E85" fill-rule="nonzero" stroke="#2E2E85" stroke-width=".2"/>
</svg>
