<svg width="15" height="20" viewBox="0 0 15 20" xmlns="http://www.w3.org/2000/svg">
    <g fill-rule="nonzero" fill="none">
        <path d="M12.02 13.998c-.75-.334-1.523-.678-2.08-1.129v-.906a1.85 1.85 0 0 0 .05-.052.317.317 0 0 0 .06-.087c.42-.49.77-1.144 1.045-1.948h.005c.737 0 1.323-.635 1.494-1.62.123-.715-.02-1.576-.594-1.939-.007-1.809-.284-2.97-.892-3.751-.602-.774-1.456-1.12-2.539-1.558C7.941.753 7.23.464 6.444.04a.33.33 0 0 0-.469.187 2.218 2.218 0 0 0-.095.521 3.28 3.28 0 0 1-.117-.122.329.329 0 0 0-.534.072 1.19 1.19 0 0 0-.116.65C2.928 2.12 2.901 3.895 2.93 6.316c-.607.383-.727 1.304-.57 2.046.195.92.773 1.513 1.471 1.513h.005c.275.804.625 1.457 1.046 1.948.014.031.034.06.058.087l.05.052v.906c-.555.451-1.329.795-2.078 1.129C1.48 14.634 0 15.293 0 16.755v1.42a1.753 1.753 0 0 0 1.756 1.745h11.42a1.753 1.753 0 0 0 1.755-1.745v-1.42c0-1.462-1.48-2.12-2.911-2.757zM5.277 1.98l.071.226a.328.328 0 0 0 .625-.196l-.165-.517c.113.053.242.091.397.109a.329.329 0 0 0 .281-.106.324.324 0 0 0 .076-.29 1.461 1.461 0 0 1-.03-.386c.657.33 1.254.573 1.79.79 1.03.418 1.773.72 2.267 1.354.505.648.74 1.659.756 3.257-.096.04-.19.086-.283.136-.062.032-.15.078-.22.107v-.01l-.007-.098c-.026-.433-.052-.841-.08-1.082-.137-1.167-1.728-1.707-3.244-1.725h-.078c-1.52 0-3.102.526-3.271 1.717-.044.306-.06.703-.079 1.124l-.001.05a3.857 3.857 0 0 1-.214-.097c-.094-.045-.19-.09-.285-.127-.022-2.447.085-3.644 1.694-4.235zm-.89 7.474a.327.327 0 0 0-.313-.229h-.243c-.457 0-.732-.537-.83-.996-.135-.64.014-1.251.338-1.393a.319.319 0 0 0 .018-.01c.072.03.163.073.227.103.286.137.61.292.89.118.17-.105.258-.295.261-.565l.003-.065c.016-.386.033-.786.072-1.06.11-.78 1.439-1.173 2.693-1.157 1.408.016 2.526.51 2.601 1.149.026.224.052.642.078 1.047l.006.101c.021.285.124.48.305.58.29.16.599-.001.873-.143.059-.031.143-.074.21-.104.321.127.48.688.372 1.316-.093.538-.391 1.08-.848 1.08h-.243a.327.327 0 0 0-.312.228c-.294.94-.685 1.656-1.163 2.13a.323.323 0 0 0-.042.052c-.535.488-1.192.753-1.874.753-.682 0-1.34-.265-1.874-.753a.327.327 0 0 0-.043-.052c-.478-.474-.869-1.19-1.162-2.13zm5.366 4.092c.587.418 1.303.736 1.999 1.046 1.354.602 2.525 1.123 2.525 2.163v1.42c0 .604-.494 1.093-1.101 1.094H1.756c-.608 0-1.1-.49-1.101-1.094v-1.42c0-1.04 1.17-1.56 2.524-2.163.697-.31 1.413-.628 1.999-1.046l2.006 3.381a.328.328 0 0 0 .564 0l2.005-3.381zm-.467-1.048v.522c0 .01 0 .02.002.03l-.005.007-1.817 3.064-1.818-3.064-.004-.007a.334.334 0 0 0 .001-.03v-.522c.542.352 1.174.54 1.82.542.646 0 1.27-.188 1.821-.542z" fill="#2E2E85"/>
        <path d="M14.277 18.175c0 .604-.494 1.093-1.101 1.094H1.756c-.608 0-1.1-.49-1.101-1.094v-1.42c0-1.04 1.17-1.56 2.524-2.163.697-.31 1.413-.628 1.999-1.046l2.006 3.381a.328.328 0 0 0 .564 0l2.005-3.381c.587.418 1.303.736 1.999 1.046 1.354.602 2.525 1.123 2.525 2.163v1.42z" fill="#EBD1C2"/>
    </g>
</svg>
