<svg width="11" height="11" viewBox="0 0 11 11" xmlns="http://www.w3.org/2000/svg">
    <path d="M.33 10.683a1.037 1.037 0 0 0 1.467 0L5.48 6.919l3.685 3.764c.271.273.667.38 1.038.28.37-.1.66-.392.76-.765.099-.374-.007-.772-.279-1.046L6.95 5.442l3.736-3.712c.23-.27.308-.638.208-.979-.1-.34-.365-.607-.703-.708a1.035 1.035 0 0 0-.972.21L5.48 3.962 1.797.253a1.035 1.035 0 0 0-.972-.21C.487.143.222.41.122.751c-.1.34-.022.71.207.98l3.685 3.71L.329 9.152a1.052 1.052 0 0 0 0 1.531z" fill="#2E2E85" fill-rule="nonzero"/>
</svg>
