<svg width="15" height="15" viewBox="0 0 15 15" xmlns="http://www.w3.org/2000/svg">
    <g fill="#CD8C66" fill-rule="nonzero">
        <path d="M8.576 12.39H5.593a.373.373 0 1 0 0 .746h2.983a.373.373 0 0 0 0-.746zM8.576 13.548H5.593a.373.373 0 1 0 0 .745h.374c.021.394.346.707.744.707h.746a.745.745 0 0 0 .744-.706h.375a.373.373 0 0 0 0-.746zM1.051 3.924l1.454.839a.28.28 0 1 0 .28-.485L1.33 3.44a.28.28 0 0 0-.28.485zM13.117 10.244l-1.453-.839a.28.28 0 0 0-.28.484l1.453.84a.28.28 0 1 0 .28-.485zM2.237 7.084a.28.28 0 0 0-.28-.28H.28a.28.28 0 0 0 0 .56h1.678a.28.28 0 0 0 .28-.28zM13.889 6.805H12.21a.28.28 0 0 0 0 .559h1.678a.28.28 0 1 0 0-.56zM2.504 9.405l-1.453.84a.28.28 0 0 0 .28.484l1.453-.84a.28.28 0 0 0-.28-.484zM11.664 4.763l1.453-.839a.28.28 0 0 0-.28-.484l-1.453.839a.28.28 0 0 0 .28.484zM9.508 2.887a.28.28 0 0 0 .382-.103l.839-1.453a.28.28 0 0 0-.485-.28l-.839 1.454a.28.28 0 0 0 .103.382zM7.084 2.237a.28.28 0 0 0 .28-.28V.28a.28.28 0 0 0-.56 0v1.678c0 .154.126.279.28.279zM4.279 2.784a.28.28 0 1 0 .484-.28l-.84-1.453a.28.28 0 0 0-.484.28l.84 1.453zM7.084 2.983c-2 0-3.705 1.634-3.719 3.651 0 1.903 1.371 2.641 1.89 4.978a.477.477 0 0 0 .444.366h2.77c.206 0 .4-.165.444-.366.52-2.337 1.89-3.075 1.89-4.978-.013-2.017-1.718-3.651-3.719-3.651z"/>
    </g>
</svg>
