<svg width="14" height="14" viewBox="0 0 14 14" xmlns="http://www.w3.org/2000/svg">
    <g fill="#2E2E85" fill-rule="nonzero">
        <path d="M2.05 11.95A7 7 0 1 0 7 0a7.009 7.009 0 0 0-7 7 7 7 0 0 0 2.05 4.95zm6.682 1.153c-.094-.185-.433-.951.008-1.581.229-.264.556-.423.905-.441.51-.103 1.142-.232 1.356-1.07.144-.566 1.15-.535 1.796-.434a6.372 6.372 0 0 1-4.065 3.526zM13.348 7a6.32 6.32 0 0 1-.312 1.957 5.408 5.408 0 0 0-.942-.09h-.014c-1.208.004-1.598.536-1.71.983-.109.423-.354.49-.854.592-.516.045-.99.3-1.31.706a2.17 2.17 0 0 0-.124 2.101 6.289 6.289 0 0 1-6.637-3.182c.47-.437 1.26-.978 1.637-.873.039.01.157.043.234.316.163.582.694.974 1.496 1.101.21.033.423.049.636.048 1.188 0 2.503-.45 2.907-1.057a.846.846 0 0 0 .126-.705c-.177-.655-1.108-1.107-1.93-1.506a7.673 7.673 0 0 1-.608-.316.303.303 0 0 1-.142-.363c.07-.142.33-.062.408-.033 1.104.399 2.075.03 2.377-.557a.842.842 0 0 0-.347-1.124c-.638-.44-.995-.867-1.004-1.202a.734.734 0 0 1 .36-.573.797.797 0 0 0 .345-.738c-.073-.687-1.107-1.38-1.797-1.769A6.303 6.303 0 0 1 13.348 7zM5.196.916c.03.042.07.076.116.1.92.442 1.94 1.156 1.98 1.538.002.025.007.073-.095.152-.376.244-.606.66-.614 1.108.015.564.448 1.142 1.286 1.72.211.146.16.247.137.29-.144.28-.787.525-1.576.242-.652-.237-1.063.047-1.215.361a.952.952 0 0 0 .383 1.201c.168.106.4.218.669.349.555.27 1.485.721 1.586 1.09a.193.193 0 0 1-.04.174c-.306.459-1.795.901-2.899.726-.379-.06-.855-.219-.97-.633a.996.996 0 0 0-.69-.769c-.729-.199-1.675.518-2.106.893A6.343 6.343 0 0 1 5.196.916z"/>
        <path d="M9.575 5.405c-.292.725-.063 1.907.453 2.342a.712.712 0 0 0 .867.068 2.48 2.48 0 0 0 .736-.757c.193-.275.248-.331.34-.321a.42.42 0 0 0 .43-.273c.224-.567-.554-2.535-1.387-3.185a.916.916 0 0 0-1.177-.089c-.572.411-.42.973-.31 1.383.108.264.124.557.048.832zm.642-1.685a.213.213 0 0 1 .13-.048.383.383 0 0 1 .203.076c.603.392 1.183 1.828 1.241 2.352a1.21 1.21 0 0 0-.693.584 1.885 1.885 0 0 1-.546.577c-.042.025-.055.03-.104-.012-.275-.232-.464-1.115-.268-1.6a1.867 1.867 0 0 0-.024-1.246c-.117-.434-.125-.55.06-.683h.001zM2.256 6.171c.097.306.345.54.655.618.13.047.268.072.407.074.515 0 .762-.414.936-.706.108-.23.277-.424.49-.563a.945.945 0 0 0 .422-.995 2.127 2.127 0 0 0-1.568-1.747.322.322 0 0 0-.225.02c-.506.24-.456.77-.423 1.122.02.222.042.452-.047.56-.354.425-.805 1.055-.647 1.617zm1.148-1.2a1.34 1.34 0 0 0 .195-1.038 1.32 1.32 0 0 1-.005-.397 1.447 1.447 0 0 1 .924 1.134c.02.188-.024.32-.077.347a1.936 1.936 0 0 0-.747.807c-.235.395-.288.445-.573.348-.137-.047-.217-.107-.237-.178-.02-.07-.04-.35.52-1.024z"/>
    </g>
</svg>
