<svg width="11" height="11" viewBox="0 0 11 11" xmlns="http://www.w3.org/2000/svg">
    <path d="M1.461 1.004c-.292 0-.477.228-.455.45a9.541 9.541 0 0 0 8.54 8.54c.222.022.45-.163.45-.455V7.752a.501.501 0 0 0-.343-.476l-1.738-.58a.503.503 0 0 0-.513.122l-.278.278a.994.994 0 0 1-1.264.122c-.95-.65-1.503-1.199-2.092-2.087a.991.991 0 0 1 .13-1.249l.284-.284a.501.501 0 0 0 .12-.513l-.578-1.738a.501.501 0 0 0-.476-.343H1.46zm-1.454.55C-.08.674.644 0 1.461 0h1.787c.648 0 1.223.415 1.428 1.03l.58 1.737c.18.541.04 1.138-.364 1.541l-.28.28c.507.76.963 1.218 1.805 1.795l.275-.275c.403-.403 1-.544 1.541-.364l1.737.58c.615.205 1.03.78 1.03 1.428V9.54c0 .817-.674 1.541-1.554 1.454A10.545 10.545 0 0 1 .007 1.554zM6.984.502c0-.277.225-.502.502-.502A3.514 3.514 0 0 1 11 3.514a.502.502 0 0 1-1.004 0 2.51 2.51 0 0 0-2.51-2.51.502.502 0 0 1-.502-.502zm0 2.008c0-.277.225-.502.502-.502.832 0 1.506.674 1.506 1.506a.502.502 0 0 1-1.004 0 .502.502 0 0 0-.502-.502.502.502 0 0 1-.502-.502z" fill="#2E2E85" fill-rule="evenodd"/>
</svg>
