<svg width="16" height="21" viewBox="0 0 16 21" xmlns="http://www.w3.org/2000/svg">
    <g transform="translate(1 1)" fill="none" fill-rule="evenodd">
        <ellipse fill="#EBD1C2" cx="7.086" cy="7.118" rx="5.123" ry="5.143"/>
        <g stroke="#2E2E85" stroke-width=".5">
            <path d="M0 18.255c.495-3.95 2.854-5.926 7.075-5.926s6.577 1.976 7.066 5.926c-3.143.738-5.498 1.108-7.066 1.108-1.489.043-3.847-.327-7.075-1.109z"/>
            <path d="M2.85 18.805v-1.35m8.38 1.35v-1.35" stroke-linecap="round"/>
        </g>
        <path d="m2.21 9.088.12.189c.738 1.976 2.52 3.27 4.77 3.27 2.25 0 4.03-1.295 4.767-3.273l.002.002.121-.189c.085-.135.246-.243.432-.367.363-.245.816-.55.91-1.241.088-.656-.195-.94-.372-1.05a.874.874 0 0 0-.778-.05c-.302-2.45-2-4.226-4.34-4.538C8.142.8 9.106.745 9.106.745 8.115.338 7.589.71 7.314 1.171 7.442.423 7.276-.062 7.307.006c.04-.086-.984.71-1.103 1.857-2.26.368-3.891 2.118-4.187 4.512a.873.873 0 0 0-.764.044c-.183.11-.477.392-.386 1.06.093.692.546.996.91 1.24.186.125.346.234.432.369zm10.025-1.921c0-.105-.009-.206-.013-.308l.046-.03c.114-.077.312-.11.456-.02.147.092.206.309.165.61-.066.492-.382.704-.716.928l-.058.04c.076-.389.12-.796.12-1.22zM7.1 2.234c2.717 0 4.69 2.075 4.69 4.933 0 2.858-1.973 4.931-4.69 4.931-2.717 0-4.69-2.073-4.69-4.931S4.382 2.234 7.1 2.234zm-5.618 4.57c.145-.086.35-.05.463.033l.033.024c-.005.102-.014.202-.014.306 0 .424.044.83.12 1.22l-.058-.04c-.334-.224-.649-.436-.716-.928-.04-.306.02-.524.172-.614z" fill="#2E2E85" fill-rule="nonzero" stroke="#2E2E85" stroke-width=".2"/>
    </g>
</svg>
