<svg width="15" height="16" viewBox="0 0 15 16" xmlns="http://www.w3.org/2000/svg" xmlns:xlink="http://www.w3.org/1999/xlink">
    <defs>
        <path id="kibaaz87qa" d="M0 0h14.777v16H0z"/>
        <path d="m3.702.155-.873.92L.327.613l-.32.32 2.008 1.003-1.16 1.226-.523-.106L0 3.388l.878.337.337.878.332-.333-.106-.522 1.226-1.16 1.004 2.007.32-.32-.464-2.502.921-.872A.526.526 0 0 0 4.075 0a.526.526 0 0 0-.373.155z" id="eeywno8c1c"/>
    </defs>
    <g fill="none" fill-rule="evenodd">
        <g>
            <mask id="n3r6t7gx6b" fill="#fff">
                <use xlink:href="#kibaaz87qa"/>
            </mask>
            <path d="M13.351 14.984H1.425a.41.41 0 0 1-.41-.41V5.91h12.746v8.666a.41.41 0 0 1-.41.41M1.425 2.238h1.786v.715a.508.508 0 0 0 1.016 0V2.24h6.323v.715a.508.508 0 0 0 1.016 0V2.24h1.785a.41.41 0 0 1 .41.41v2.244H1.016V2.649a.41.41 0 0 1 .41-.41M13.35 1.223h-1.785V.508a.508.508 0 0 0-1.016 0v.715H4.227V.508a.508.508 0 0 0-1.016 0v.715H1.425C.64 1.223 0 1.863 0 2.65v11.926C0 15.36.64 16 1.425 16h11.926c.786 0 1.426-.64 1.426-1.425V2.649c0-.786-.64-1.426-1.426-1.426" fill="#544B54" mask="url(#n3r6t7gx6b)"/>
        </g>
        <g transform="translate(5.087 8)">
            <mask id="32m4uukdgd" fill="#fff">
                <use xlink:href="#eeywno8c1c"/>
            </mask>
            <path fill="#544B54" mask="url(#32m4uukdgd)" d="M-.407 5.01h5.468V-.459H-.407z"/>
        </g>
    </g>
</svg>
