<svg width="16" height="15" viewBox="0 0 16 15" xmlns="http://www.w3.org/2000/svg" xmlns:xlink="http://www.w3.org/1999/xlink">
    <defs>
        <path id="7sc0rfsvba" d="M0 0h16v15H0z"/>
    </defs>
    <g fill="none" fill-rule="evenodd">
        <mask id="d9zpkjy4ub" fill="#fff">
            <use xlink:href="#7sc0rfsvba"/>
        </mask>
        <path d="M12.192 1.106C8.862-.814 4.576-.159 2.037 2.48V1.172h-.932v2.617c0 .196.14.37.35.414.21.044.419-.021.512-.196 2.05-3.119 6.405-4.1 9.736-2.181 2.306 1.33 3.61 3.817 3.331 6.347h.932c.28-2.814-1.165-5.584-3.774-7.067m2.353 9.663c-.21-.044-.42.021-.513.196-2.05 3.119-6.405 4.1-9.736 2.181C1.99 11.816.686 9.329.966 6.799H.034c-.28 2.835 1.188 5.605 3.773 7.089A8.474 8.474 0 0 0 8 15c2.236 0 4.425-.872 5.986-2.486v1.308h.932v-2.617a.526.526 0 0 0-.373-.436M9.397 8.936c0-.37-.233-.72-.605-.85l-1.84-.698c-.653-.24-1.072-.829-1.072-1.505 0-.873.746-1.592 1.677-1.614V3.113h.932v1.156h.047a2.4 2.4 0 0 1 1.374.458l.14.109-.606.676-.14-.109a1.206 1.206 0 0 0-.768-.262h-.932c-.443 0-.792.327-.792.742 0 .305.186.567.489.698l1.84.698c.722.283 1.188.938 1.188 1.657 0 .982-.839 1.767-1.863 1.81v1.157h-.932v-1.156a3.023 3.023 0 0 1-1.91-.829l.675-.61c.373.37.886.566 1.421.566h.676c.559 0 1.001-.414 1.001-.938" fill="#2E2E85" mask="url(#d9zpkjy4ub)"/>
    </g>
</svg>
