<svg width="42" height="37" viewBox="0 0 42 37" xmlns="http://www.w3.org/2000/svg" xmlns:xlink="http://www.w3.org/1999/xlink">
    <defs>
        <filter x="-6.1%" y="-4.2%" width="112.3%" height="110.8%" filterUnits="objectBoundingBox" id="w1sfqh9qra">
            <feOffset dy="1" in="SourceAlpha" result="shadowOffsetOuter1"/>
            <feGaussianBlur stdDeviation="4" in="shadowOffsetOuter1" result="shadowBlurOuter1"/>
            <feColorMatrix values="0 0 0 0 0 0 0 0 0 0 0 0 0 0 0 0 0 0 0.0840833971 0" in="shadowBlurOuter1" result="shadowMatrixOuter1"/>
            <feMerge>
                <feMergeNode in="shadowMatrixOuter1"/>
                <feMergeNode in="SourceGraphic"/>
            </feMerge>
        </filter>
        <path id="qdaw9wiqbb" d="M0 0h16v11H0z"/>
    </defs>
    <g transform="translate(-279 -336)" filter="url(#w1sfqh9qra)" fill="none" fill-rule="evenodd">
        <path d="M307.533 356.758c0 .152-.27.393-.87.59-.643.21-1.503.326-2.42.326-.163 0-.325-.004-.487-.012v-.003c0-.677-.235-1.327-.68-1.88a3.641 3.641 0 0 0-1.404-1.052c.284-.313.484-.704.564-1.139.226-.148.473-.27.736-.364a2.24 2.24 0 0 0 2.542 0c1.213.434 2.019 1.458 2.019 2.583v.95zm-5.114 2.442c-.643.21-1.502.326-2.42.326-.917 0-1.777-.116-2.42-.326-.6-.197-.87-.438-.87-.59v-.95c0-1.125.806-2.15 2.019-2.583a2.24 2.24 0 0 0 2.543 0c1.212.433 2.018 1.459 2.018 2.582v.951c0 .152-.269.393-.87.59zm-6.662-1.526c-.917 0-1.777-.116-2.42-.327-.6-.196-.87-.437-.87-.59v-.95c0-1.125.806-2.15 2.019-2.583a2.24 2.24 0 0 0 2.542 0c.263.094.509.216.734.363.08.435.28.827.565 1.14a3.642 3.642 0 0 0-1.4 1.047 2.981 2.981 0 0 0-.685 1.885v.003c-.16.008-.323.012-.485.012zm0-8.2c.998 0 1.81.823 1.81 1.835 0 1.013-.812 1.836-1.81 1.836-.997 0-1.809-.823-1.809-1.836 0-1.012.812-1.835 1.81-1.835zm4.242 1.852c.998 0 1.81.824 1.81 1.836s-.812 1.835-1.81 1.835c-.997 0-1.809-.823-1.809-1.835s.812-1.836 1.81-1.836zm4.244-1.852c.997 0 1.809.823 1.809 1.835 0 1.013-.812 1.836-1.81 1.836-.997 0-1.808-.823-1.808-1.836 0-1.012.811-1.835 1.809-1.835zm3.072 4.447a3.642 3.642 0 0 0-1.4-1.047 2.32 2.32 0 0 0 .604-1.565c0-1.273-1.021-2.309-2.276-2.309s-2.276 1.036-2.276 2.31c0 .603.229 1.152.603 1.564a3.93 3.93 0 0 0-.299.145c-.073-1.207-1.064-2.167-2.272-2.167-1.207 0-2.198.96-2.271 2.166a3.937 3.937 0 0 0-.298-.144 2.32 2.32 0 0 0 .603-1.565c0-1.273-1.02-2.309-2.276-2.309-1.255 0-2.276 1.036-2.276 2.31 0 .603.23 1.152.604 1.564a3.642 3.642 0 0 0-1.4 1.047 2.981 2.981 0 0 0-.685 1.886v.95c0 .297.207.719 1.194 1.041.688.226 1.598.35 2.563.35.162 0 .324-.004.485-.011v.473c0 .297.207.718 1.194 1.04.688.226 1.598.35 2.563.35.965 0 1.875-.124 2.564-.35.986-.322 1.193-.743 1.193-1.04v-.473c.162.007.325.01.487.01.965 0 1.875-.123 2.563-.349.987-.322 1.194-.744 1.194-1.04v-.951c0-.679-.237-1.331-.685-1.886z" fill="#2E2E85"/>
        <g transform="translate(292 349)">
            <mask id="fdvi20yphc" fill="#fff">
                <use xlink:href="#qdaw9wiqbb"/>
            </mask>
            <path d="M3.78.555a1.77 1.77 0 0 0-1.758 1.779c0 .981.788 1.78 1.757 1.78a1.77 1.77 0 0 0 1.758-1.78A1.77 1.77 0 0 0 3.78.554zm0 3.643a1.855 1.855 0 0 1-1.842-1.864c0-1.028.826-1.864 1.841-1.864 1.016 0 1.842.836 1.842 1.864a1.855 1.855 0 0 1-1.842 1.864zM12.22.555a1.77 1.77 0 0 0-1.757 1.779c0 .981.788 1.78 1.758 1.78a1.77 1.77 0 0 0 1.758-1.78A1.77 1.77 0 0 0 12.22.554zm0 3.643a1.855 1.855 0 0 1-1.84-1.864c0-1.028.825-1.864 1.84-1.864 1.016 0 1.842.836 1.842 1.864a1.855 1.855 0 0 1-1.841 1.864zM8 2.393a1.77 1.77 0 0 0-1.758 1.78c0 .98.788 1.778 1.757 1.778a1.77 1.77 0 0 0 1.758-1.779A1.77 1.77 0 0 0 8 2.393zm0 3.643a1.855 1.855 0 0 1-1.842-1.864c0-1.027.826-1.864 1.841-1.864 1.016 0 1.842.837 1.842 1.864a1.855 1.855 0 0 1-1.842 1.864zM2.508 4.281A3.16 3.16 0 0 0 1.09 5.285a2.439 2.439 0 0 0-.543 1.512v.943c0 .136.288.366.837.545.636.208 1.486.322 2.394.322.146 0 .294-.003.441-.01a3 3 0 0 1 .69-1.86c.35-.432.818-.787 1.356-1.028a2.338 2.338 0 0 1-.53-1.089 3.408 3.408 0 0 0-.686-.339 2.272 2.272 0 0 1-2.541 0zm1.27 4.41c-.917 0-1.776-.115-2.42-.325-.543-.178-.894-.423-.894-.626v-.943c0-.556.194-1.098.56-1.565a3.248 3.248 0 0 1 1.476-1.038l.02-.007.017.012a2.19 2.19 0 0 0 2.483 0l.017-.012.02.007c.263.094.512.217.738.365l.016.01.003.018c.076.414.267.797.551 1.109l.04.044-.054.024A3.602 3.602 0 0 0 4.975 6.79a2.912 2.912 0 0 0-.671 1.844v.043l-.04.002a10.51 10.51 0 0 1-.485.012zm8-.094c.147.007.296.01.442.01.908 0 1.758-.114 2.394-.322.55-.179.837-.41.837-.545v-.943c0-.537-.188-1.06-.543-1.512a3.16 3.16 0 0 0-1.418-1.004 2.272 2.272 0 0 1-2.54 0 3.408 3.408 0 0 0-.689.34c-.077.403-.26.778-.529 1.088.54.242 1.008.598 1.359 1.033.44.546.678 1.187.686 1.855zm.442.095c-.16 0-.324-.004-.486-.012l-.04-.002v-.043c0-.662-.231-1.298-.668-1.84a3.6 3.6 0 0 0-1.38-1.031l-.055-.024.04-.044c.284-.311.475-.695.552-1.108l.003-.018.015-.01c.227-.149.476-.272.74-.366l.02-.007.017.012a2.19 2.19 0 0 0 2.483 0l.017-.012.02.007c.6.214 1.11.573 1.476 1.038.366.467.56 1.009.56 1.565v.943c0 .203-.35.448-.894.626-.644.21-1.503.326-2.42.326zM6.729 6.119A3.16 3.16 0 0 0 5.31 7.123a2.439 2.439 0 0 0-.543 1.512v.944c0 .135.288.365.837.544.635.208 1.486.322 2.394.322.909 0 1.76-.114 2.395-.322.549-.179.836-.41.836-.544v-.944c0-.537-.187-1.06-.542-1.512A3.16 3.16 0 0 0 9.27 6.12a2.272 2.272 0 0 1-2.541 0zm1.27 4.41c-.917 0-1.776-.115-2.42-.325-.543-.177-.894-.423-.894-.625v-.944c0-.556.194-1.097.56-1.565a3.248 3.248 0 0 1 1.476-1.038l.02-.007.017.012a2.19 2.19 0 0 0 2.483 0l.017-.012.02.007c.6.214 1.11.573 1.475 1.039.367.467.561 1.008.561 1.564v.944c0 .202-.351.448-.895.625l-.012-.04.012.04c-.643.21-1.503.326-2.42.326zM5.513 3.872c.064.03.128.06.19.092.016-.181.052-.356.106-.522-.082.153-.18.297-.296.43zm4.674-.437c.056.169.093.346.11.53.061-.033.125-.064.19-.093a2.34 2.34 0 0 1-.3-.437zm-5.883 5.63v.515c0 .28.2.68 1.158.992.68.222 1.582.344 2.537.344.956 0 1.857-.122 2.537-.344.958-.313 1.159-.712 1.159-.992v-.515l.044.002c.16.008.323.011.482.011.955 0 1.856-.122 2.537-.344.957-.313 1.158-.712 1.158-.993v-.943c0-.664-.232-1.302-.671-1.844a3.602 3.602 0 0 0-1.377-1.027l-.054-.024.04-.044c.38-.417.59-.958.59-1.524 0-1.24-.998-2.25-2.223-2.25-1.226 0-2.223 1.01-2.223 2.25 0 .566.21 1.107.59 1.524l.04.044-.055.024c-.1.043-.2.09-.294.142l-.058.03-.004-.065C10.146 2.85 9.171 1.923 8 1.923c-1.171 0-2.146.926-2.218 2.11l-.004.065-.057-.03a3.897 3.897 0 0 0-.293-.142l-.055-.024.04-.044c.38-.417.59-.958.59-1.524 0-1.24-.997-2.25-2.223-2.25-1.225 0-2.222 1.01-2.222 2.25 0 .566.21 1.107.59 1.524l.04.044-.055.024A3.602 3.602 0 0 0 .755 4.953a2.912 2.912 0 0 0-.671 1.844v.943c0 .28.2.68 1.158.993.68.222 1.582.344 2.537.344.16 0 .32-.003.481-.01l.044-.002zM7.999 11c-.964 0-1.874-.124-2.562-.348-.555-.182-1.217-.515-1.217-1.073v-.426c-.147.006-.295.009-.44.009-.965 0-1.875-.124-2.563-.349C.662 8.633 0 8.3 0 7.74v-.943c0-.684.239-1.34.69-1.898.35-.432.818-.787 1.356-1.028a2.342 2.342 0 0 1-.573-1.537C1.473 1.047 2.508 0 3.78 0c1.272 0 2.306 1.047 2.306 2.334 0 .251-.04.498-.116.731A2.306 2.306 0 0 1 8 1.838c.875 0 1.643.498 2.034 1.234a2.354 2.354 0 0 1-.118-.738C9.915 1.047 10.949 0 12.22 0c1.271 0 2.306 1.047 2.306 2.334 0 .567-.203 1.11-.573 1.537.538.241 1.006.596 1.356 1.028.451.558.69 1.214.69 1.898v.943c0 .56-.662.892-1.217 1.073-.688.225-1.598.349-2.562.349-.146 0-.295-.003-.442-.01v.427c0 .558-.662.891-1.217 1.073-.689.224-1.599.348-2.563.348z" fill="#2E2E85" mask="url(#fdvi20yphc)"/>
        </g>
    </g>
</svg>
