<svg width="52" height="52" viewBox="0 0 52 52" xmlns="http://www.w3.org/2000/svg">
    <g fill="none" fill-rule="evenodd">
        <path d="m36.366 13.195 5.854 2.195 1.463 9.512-4.39 2.196c0 .487-.244.731-.732.731s-1.22-.244-2.195-.731V13.195zM13.683 13.195l2.927 2.195 1.463 2.927-2.927 2.195c-.487 2.44-.975 3.659-1.463 3.659-.488 0-1.463-.488-2.927-1.464l2.927-9.512zM41 35.146h6.341l-2.818 7.06c-2.956 2.423-5.305 4.07-7.046 4.943-1.74.872-3.62 1.343-5.637 1.412-.47-2.588-.47-4.47 0-5.648s1.41-1.884 2.819-2.118L41 35.146z" fill="#EBD1C2"/>
        <path d="M8.323 43.678A25 25 0 1 0 26 1 25.031 25.031 0 0 0 1 26a25 25 0 0 0 7.323 17.678zm23.863 4.117c-.335-.659-1.548-3.396.027-5.645a4.59 4.59 0 0 1 3.235-1.576c1.817-.368 4.078-.826 4.84-3.823.515-2.02 4.11-1.907 6.416-1.549a22.757 22.757 0 0 1-14.518 12.593zM48.673 26a22.575 22.575 0 0 1-1.115 6.99 19.313 19.313 0 0 0-3.366-.324l-.05.001c-4.315.014-5.705 1.916-6.11 3.51-.385 1.512-1.26 1.753-3.046 2.116a6.717 6.717 0 0 0-4.681 2.523 7.747 7.747 0 0 0-.44 7.504A22.46 22.46 0 0 1 6.162 36.955c1.68-1.56 4.501-3.492 5.845-3.118.139.037.562.153.835 1.126.582 2.082 2.48 3.48 5.344 3.934a14.46 14.46 0 0 0 2.271.17c4.244 0 8.94-1.608 10.382-3.773v.001a3.02 3.02 0 0 0 .452-2.52c-.636-2.34-3.96-3.954-6.891-5.38-.863-.418-1.678-.814-2.177-1.126a1.084 1.084 0 0 1-.506-1.296c.248-.51 1.178-.223 1.46-.12 3.94 1.424 7.41.106 8.487-1.988a3.007 3.007 0 0 0-1.24-4.015c-2.28-1.573-3.553-3.097-3.585-4.291.07-.853.55-1.618 1.287-2.05a2.845 2.845 0 0 0 1.23-2.632c-.258-2.456-3.951-4.927-6.416-6.318A22.51 22.51 0 0 1 48.673 26zM19.558 4.273c.107.15.249.271.413.354 3.289 1.581 6.928 4.131 7.07 5.493.01.092.028.264-.337.545a4.811 4.811 0 0 0-2.192 3.956c.054 2.014 1.598 4.08 4.591 6.144.755.522.57.88.49 1.034-.513 1-2.81 1.878-5.629.864-2.328-.843-3.796.17-4.34 1.291a3.401 3.401 0 0 0 1.368 4.29c.602.376 1.431.779 2.39 1.244 1.984.964 5.304 2.577 5.663 3.896a.688.688 0 0 1-.142.62c-1.092 1.638-6.412 3.218-10.352 2.594-1.353-.214-3.053-.783-3.467-2.263a3.556 3.556 0 0 0-2.46-2.745c-2.605-.711-5.983 1.848-7.525 3.187a22.654 22.654 0 0 1 14.46-30.504z" stroke="#FFF" stroke-width=".5" fill="#2E2E85" fill-rule="nonzero"/>
        <path d="M35.7 20.272c-1.062 2.518-.23 6.626 1.648 8.139.425.366.964.588 1.534.63a2.686 2.686 0 0 0 1.619-.394 8.812 8.812 0 0 0 2.68-2.632c.7-.954.901-1.151 1.235-1.115.684.056 1.324-.332 1.563-.947.817-1.973-2.012-8.809-5.044-11.07a3.406 3.406 0 0 0-2.082-.898 3.45 3.45 0 0 0-2.199.591c-2.081 1.428-1.53 3.38-1.126 4.804.39.92.45 1.936.173 2.892zm2.336-5.856a.799.799 0 0 1 .474-.166c.267.018.522.11.736.262 2.196 1.365 4.305 6.355 4.516 8.175a4.357 4.357 0 0 0-2.522 2.029 6.686 6.686 0 0 1-1.984 2.004c-.153.088-.2.104-.378-.04-1.003-.808-1.69-3.875-.977-5.561a6.215 6.215 0 0 0-.085-4.33c-.426-1.508-.458-1.908.22-2.373zM8.438 22.873a3.402 3.402 0 0 0 2.426 2.247c.483.171.992.262 1.506.27 1.91 0 2.823-1.505 3.47-2.567a4.956 4.956 0 0 1 1.811-2.048 3.457 3.457 0 0 0 1.363-1.568c.28-.647.351-1.363.204-2.051a7.678 7.678 0 0 0-1.93-4.038 7.904 7.904 0 0 0-3.88-2.32 1.215 1.215 0 0 0-.835.074c-1.872.875-1.688 2.804-1.566 4.082.077.808.157 1.644-.175 2.036-1.309 1.546-2.98 3.84-2.394 5.883zm4.251-4.369a4.802 4.802 0 0 0 .722-3.771 4.72 4.72 0 0 1-.019-1.447 5.36 5.36 0 0 1 2.283 1.606 5.218 5.218 0 0 1 1.142 2.52c.075.686-.09 1.162-.287 1.263a7.093 7.093 0 0 0-2.766 2.933c-.872 1.438-1.069 1.621-2.122 1.269-.51-.17-.806-.39-.88-.649-.073-.253-.15-1.27 1.927-3.724z" stroke="#FFF" stroke-width=".5" fill="#2E2E85" fill-rule="nonzero"/>
    </g>
</svg>
