<svg width="53" height="50" viewBox="0 0 53 50" xmlns="http://www.w3.org/2000/svg">
    <g fill="none" fill-rule="evenodd">
        <circle fill="#EBD1C2" cx="29.805" cy="4.43" r="3.5"/>
        <path d="m2.305 46.43 3.5-2c10.013-3.963 16.846-6.63 20.5-8 3.14-1.178 5.72-1.583 8-2.5 3.27-1.315 6.464-3.104 9.5-4.5 1.852-.852 4.519-2.018 8-3.5v23h-50.5l1-2.5z" fill="#EBD1C2"/>
        <path d="M26.178 8.862c.23.017.46.055.689.116.05.013.098.033.143.06l9.03 5.214v-3.044a.598.598 0 0 1 1.194 0v3.733l1.164.672a2.763 2.763 0 0 1-1.164 5.145v11.587c.31-.087.615-.186.915-.308.841-.343 1.535-.894 2.22-1.455.764-.627 1.519-1.267 2.405-1.723.779-.4 1.642-.54 2.51-.673.742-.113 1.49-.22 2.166-.574.737-.383 1.335-.935 1.964-1.428.728-.573 1.494-1.073 2.48-1.276a.592.592 0 0 1 .496.122c.14.112.22.283.22.462v23.911c0 .33-.267.597-.596.597H.597a.595.595 0 0 1-.578-.746c.86-3.321 2.916-4.764 5.38-5.66 2.272-.827 4.912-1.151 7.176-2.232 1.18-.564 2.234-1.568 3.476-2a2.75 2.75 0 0 1 .014-1.871l4.364-11.828a5.703 5.703 0 0 1-.753-1.164 3.979 3.979 0 0 1-.19-.045l-3.823-1.024a2.576 2.576 0 0 1-1.822-3.155L17.3 7.37a2.576 2.576 0 0 1 3.154-1.822l3.824 1.025a2.575 2.575 0 0 1 1.901 2.29zm10.68 24.798c.59-.137 1.176-.287 1.74-.518.956-.388 1.75-1 2.528-1.637.698-.573 1.382-1.167 2.194-1.583.664-.342 1.405-.442 2.146-.555.87-.134 1.742-.28 2.537-.696.803-.42 1.461-1.01 2.147-1.549.397-.31.801-.604 1.267-.812v22.496H1.404c.84-2.323 2.484-3.392 4.403-4.09 2.307-.839 4.984-1.18 7.281-2.277 1.175-.56 2.205-1.596 3.453-1.982A9.02 9.02 0 0 1 17 40.33a.556.556 0 0 0 .117-.028c1.197-.283 2.433-.344 3.642-.601a.592.592 0 0 0 .176-.039c.433-.099.86-.225 1.281-.4.84-.344 1.527-.903 2.217-1.453.193-.156.387-.31.586-.455.031-.02.061-.04.088-.065.381-.27.785-.508 1.247-.657.817-.265 1.67-.293 2.522-.343a.632.632 0 0 0 .241-.016c.497-.033.991-.083 1.476-.201 1.463-.36 2.615-1.27 3.999-1.798.678-.258 1.385-.412 2.091-.573a.59.59 0 0 0 .174-.04zm-15.521-7.007c.532.542 1.1 1.09 1.574 1.675.294.363.553.739.73 1.139l-3.37 9.132c-1.014.206-2.045.277-3.055.468a1.565 1.565 0 0 1-.031-1.162l4.152-11.252zm2.591 5.482.117 4.178c.001.09.006.181.017.27-.127.095-.25.193-.374.292-.601.481-1.192.983-1.925 1.283-.023.01-.044.02-.067.028l2.232-6.051zm1.731-22.073c.27-.03.55-.015.826.051l11.316 6.533a1.569 1.569 0 0 1-1.568 2.716l-7.65-4.418a.6.6 0 0 0-.876.363l-2.15 8.02a.597.597 0 0 0 .245.651c.796.534 1.508 1.624 1.956 2.623.282.632.466 1.227.456 1.616v.028l.138 6.906c-.8.048-1.598.096-2.366.344-.267.087-.52.197-.762.324l-.146-5.3a3.654 3.654 0 0 0-.212-1.168.609.609 0 0 0-.074-.196c-.466-1.152-1.436-2.157-2.382-3.113a21.304 21.304 0 0 1-.88-.923 6.05 6.05 0 0 1-.591-.777c-.291-.469-.457-.952-.327-1.487l2.945-10.992a2.453 2.453 0 0 1 2.102-1.801zm3.884 24.99-.136-6.816c.011-.51-.19-1.297-.56-2.123-.471-1.053-1.212-2.172-2.032-2.863l1.844-6.883 6.977 4.029c.133.076.267.14.405.192v12.05c-.634.143-1.266.288-1.874.521-1.339.509-2.444 1.406-3.858 1.752a7.001 7.001 0 0 1-.766.14zM17.135 12.593l4.656 1.247-2.333 8.71-.004.013c-.052.212-.078.42-.08.625l-3.403-.912a1.382 1.382 0 0 1-.977-1.693l2.14-7.99zm5.252-.976-.286 1.07-4.657-1.247.286-1.07 4.657 1.247zm-4.348-2.4.414-1.539a1.381 1.381 0 0 1 1.692-.977l3.822 1.024c.589.157.988.673 1.024 1.25a3.655 3.655 0 0 0-2.123 1.536L18.04 9.218zM29.576 0A4.128 4.128 0 0 1 33.7 4.125 4.126 4.126 0 1 1 29.576 0zm0 1.194a2.932 2.932 0 1 0 2.932 2.932 2.934 2.934 0 0 0-2.932-2.932z" fill="#2E2E85"/>
    </g>
</svg>
